<svg width="20" height="19" viewBox="0 0 20 19" fill="none" xmlns="http://www.w3.org/2000/svg">
<path d="M10.762 0.352352C10.5752 0.13259 10.3026 0.00418455 10.0142 0.000100441C9.72578 -0.00398367 9.44967 0.116652 9.25672 0.331035L0.256724 10.331C-0.00745708 10.6246 -0.0741465 11.0461 0.0865185 11.4068C0.247183 11.7676 0.605108 12 1.00002 12H3.00002V18C3.00002 18.5523 3.44773 19 4.00002 19H8.00002V14H12V19H16C16.5523 19 17 18.5523 17 18V12H18.5C18.8898 12 19.2441 11.7735 19.4077 11.4197C19.5713 11.0659 19.5144 10.6493 19.262 10.3524L10.762 0.352352Z" fill="#252525"/>
</svg>
